
<svg xmlns="http://www.w3.org/2000/svg" width="200" height="200" viewBox="0 0 200 200">
  <g id="coffee-cup" transform="translate(-100 -100)">
    <rect id="background" width="200" height="200" transform="translate(100 100)" fill="#f5f5f5"/>
    <path id="cup" d="M50,150a50,50,0,0,1,100,0v50H50Z" transform="translate(75 75)" fill="#d3d3d3"/>
    <path id="handle" d="M20,0a20,20,0,0,1,0,40H10A10,10,0,0,1,0,30V10A10,10,0,0,1,10,0Z" transform="translate(155 115)" fill="#d3d3d3"/>
    <path id="coffee" d="M90,130a40,40,0,0,1,80,0v20H90Z" transform="translate(55 70)" fill="#6f4e37"/>
  </g>
</svg>
